/* XPM */
static char *result[] = {
/* columns rows colors chars-per-pixel */
"60 60 235 2 ",
"   c #010101",
".  c #0B0B0B",
"X  c #13100C",
"o  c #141414",
"O  c #1D1714",
"+  c #1B1B1B",
"@  c #301C17",
"#  c #32231C",
"$  c #222222",
"%  c #2D2D2D",
"&  c #3B2B25",
"*  c #323232",
"=  c #3C3C3C",
"-  c #541C14",
";  c #64140F",
":  c #691712",
">  c #6B1612",
",  c #721B17",
"<  c #751915",
"1  c #7B1A17",
"2  c #7D1B18",
"3  c #672C1D",
"4  c #77241C",
"5  c #52352D",
"6  c #792C24",
"7  c #663822",
"8  c #763A2E",
"9  c #594D38",
"0  c gray27",
"q  c #4E4E4E",
"w  c #545454",
"e  c #5C5C5C",
"r  c #7E5548",
"t  c #656565",
"y  c #6E6562",
"u  c #6B6B6B",
"i  c #747474",
"p  c #7B7B7B",
"a  c #831D1A",
"s  c #8B1E1C",
"d  c #901F1D",
"f  c #84231D",
"g  c #8D211D",
"h  c #93221E",
"j  c #99231F",
"k  c #94291F",
"l  c #88301D",
"z  c #872922",
"x  c #942420",
"c  c #9C2421",
"v  c #942D23",
"b  c #9C2B23",
"n  c #9B2E2A",
"m  c #8A3529",
"M  c #973529",
"N  c #893E34",
"B  c #913D33",
"V  c #A32522",
"C  c #AA2623",
"Z  c #A42B23",
"A  c #AC2B25",
"S  c #A52F29",
"D  c #B32A25",
"F  c #B42825",
"G  c #BA2826",
"H  c #A83829",
"J  c #B5342A",
"K  c #AB3C33",
"L  c #BA3B30",
"P  c #C12A27",
"I  c #CB2A27",
"U  c #C72B29",
"Y  c #D12D27",
"T  c #C5362A",
"R  c #D3392A",
"E  c #89462C",
"W  c #984436",
"Q  c #954F3A",
"!  c #AD412F",
"~  c #BA442D",
"^  c #AB522F",
"/  c #AA4839",
"(  c #B84834",
")  c #B44C3A",
"_  c #A95639",
"`  c #B85A3B",
"'  c #BA6334",
"]  c #D5452D",
"[  c #D74B2E",
"{  c #CB502D",
"}  c #C54735",
"|  c #D54835",
" . c #C35638",
".. c #D7563B",
"X. c #D2622E",
"o. c #C76735",
"O. c #D96B35",
"+. c #CC783C",
"@. c #D77539",
"#. c #E36F3B",
"$. c #E67935",
"%. c #9A5246",
"&. c #AF5543",
"*. c #B65842",
"=. c #936C4F",
"-. c #B86448",
";. c #A37847",
":. c #B66D51",
">. c #B97A68",
",. c #C14F42",
"<. c #C95C48",
"1. c #D75A44",
"2. c #C66846",
"3. c #D96649",
"4. c #CA7347",
"5. c #D9774A",
"6. c #C96C56",
"7. c #D36C51",
"8. c #C87A5A",
"9. c #D97856",
"0. c #E16043",
"q. c #E37C43",
"w. c #E37B58",
"e. c #C97A6A",
"r. c #D47964",
"t. c #E17963",
"y. c #DE813E",
"u. c #E9863D",
"i. c #F28C3C",
"p. c #F6953D",
"a. c #B7925A",
"s. c #92886E",
"d. c #AE887B",
"f. c #D2824D",
"g. c #DA8757",
"h. c #DB9658",
"j. c #ED8C44",
"k. c #E68A49",
"l. c #F18C42",
"z. c #EA9449",
"x. c #F39442",
"c. c #F59B44",
"v. c #F59B4B",
"b. c #E48958",
"n. c #E99658",
"m. c #F29955",
"M. c #F5A14B",
"N. c #F8A349",
"B. c #F9AB4E",
"V. c #EDA35E",
"C. c #F6AA58",
"Z. c #FAB559",
"A. c #F9B55C",
"S. c #D88766",
"D. c #DA9565",
"F. c #C88875",
"G. c #D99B74",
"H. c #E88E64",
"J. c #E79865",
"K. c #EE956B",
"L. c #D5A16D",
"P. c #DDAB71",
"I. c #EAA766",
"U. c #F5AD66",
"Y. c #F9B565",
"T. c #FBBB64",
"R. c #F7B769",
"E. c #F4B56A",
"W. c #FABD6C",
"Q. c #E6AA75",
"!. c #F0A27F",
"~. c #EAB479",
"^. c #F5BA75",
"/. c #F9BC73",
"(. c #FCC265",
"). c #F6C06F",
"_. c #FCC26C",
"`. c #FBC373",
"'. c #FDCA74",
"]. c #F8C479",
"[. c #FCCB7C",
"{. c #FED27F",
"}. c #868686",
"|. c gray55",
" X c #949494",
".X c #9B9B9B",
"XX c #B09285",
"oX c gray64",
"OX c #ABABAB",
"+X c #B4B4B4",
"@X c #BABABA",
"#X c #D08E89",
"$X c #E18F80",
"%X c #D1AA93",
"&X c #EDAB84",
"*X c #EDB68F",
"=X c #F5B688",
"-X c #EAB395",
";X c #EDB9A9",
":X c #EEC68D",
">X c #F8C686",
",X c #F6CC8D",
"<X c #FBCD8B",
"1X c #FDD384",
"2X c #FDD58C",
"3X c #EBC69A",
"4X c #F6C997",
"5X c #FCD393",
"6X c #F8D597",
"7X c #FDDA9B",
"8X c #FEE09B",
"9X c #F7CAA7",
"0X c #F9D7A5",
"qX c #F2D0B7",
"wX c #FDE3A9",
"eX c #FDE5B7",
"rX c #C2C2C2",
"tX c #CBCBCB",
"yX c #D4CCC9",
"uX c #D3D3D3",
"iX c #DCDCDC",
"pX c #ECD4CF",
"aX c #F6DBC9",
"sX c #F8E2CB",
"dX c #FAE6D6",
"fX c gray89",
"gX c #ECECEC",
"hX c #F5E8E5",
"jX c #FAEFEA",
"kX c #FCF0E7",
"lX c #F9F3ED",
"zX c #F5F5F5",
"xX c #FAF6F3",
"cX c #FBF8F5",
"vX c #FEFEFE",
/* pixels */
"  |.zXvXvXvXvXzXvXvXvXvXvXvXvXvXvXvXvXvXvXvXzX X    +       .   . +     +XvXvXvXvXvXvXvXvXvXvXvXvXvXvXvXzXvXzXvXvXfXe   ",
"o   e tXvXzXvXzXvXvXvXvXvXvXvXvXvXvXvXvXvXzXvXzX+X    +   . . X +   e iXvXzXvXvXzXvXvXvXvXvXvXvXvXvXvXvXzXvXvXvX@X%   o ",
"  +     +XvXvXvXvXvXvXvXvXvXvXvXvXvXvXvXvXvXvXvXvXtXq   + . + .   }.gXvXvXvXvXvXvXvXvXvXvXvXvXvXvXvXvXvXzXvXgX X    o   ",
"  . + .    XzXvXvXvXvXvXvXvXvXvXvXvXvXvXzXvXvXvXvXzXgX|.  +     OXvXvXzXvXvXzXvXvXvXvXvXvXvXvXvXvXvXvXvXvXiXt   o o   . ",
".     . +   e iXvXvXvXvXvXvXvXvXvXvXvXvXzXvXvXvXvXvXvXvX+X  0 uXvXvXzXvXvXvXvXvXvXvXvXvXvXvXvXvXvXvXvXvXtX%   + .   . . ",
"        . +   $ @XvXvXvXvXvXvXvXvXvXvXvXvXvXvXvXvXvXvXvXvXiXgXvXvXvXvXvXvXvXvXvXvXvXvXvXvXvXvXzXvXvXzXOX    +   .       ",
"            o      XzXvXvXvXvXvXvXvXvXvXvXvXvXvXvXvXvXvXvXvXvXvXvXvXvXvXvXvXvXvXvXvXvXvXvXvXzXvXvXiXi   . o             ",
"    .         o +   t fXvXzXvXvXvXvXvXvXvXvXvXvXvXvXvXvXvXvXvXvXvXvXvXvXvXvXvXvXvXvXvXvXvXvXvXvXuX=   + .               ",
"                . +   * uXvXvXzXvXvXvXvXvXvXvXvXvXvXvXvXvXvXvXvXvXvXvXvXvXvXvXvXvXvXvXvXvXvXzX+X    +                   ",
"                    +     OXzXvXzXvXvXvXvXvXvXvXvXvXvXvXvXvXvXvXvXvXvXvXvXvXvXvXvXvXvXvXvXfX|.  o o                     ",
"                      o .   i iXvXvXvXvXvXvXvXvXvXvXvXvXvXvXvXvXvXvXvXvXvXvXvXvXvXvXvXvXtX0   + o                       ",
".                       . +   = tXvXzXvXvXvXvXvXvXvXvXvXvXvXvXvXvXvXvXjXxXvXvXvXzXvXvXOX    +                           ",
"o                           +     +XvXvXcXvXvXpXaXaXdXcXvXvXvXvXkX=X$.i.U.xXzXvXvXgX|.  . o                         . o ",
"  . .                         o     |.fXvXvXhXk.6Xm.Y.dXcXaX9X*X&Xz.$.p.T.0XvXzXuXe   + . . .                     . .   ",
"p     o                   . .   X +   q %X;Xm./.=Xl.$.V.W.u.u.j.X.X.$.c.{.8XlX+Xo   + .                         +     .X",
"zXOX    +                     . O Q +.f.^.<Xm.`.C.i.$.$.v.p.i.k.o.4.k.v.m.K.d.    o .     .                 . o   = rXvX",
"vXvXuX0   + .       .     7 ^ ' k.m.~.Y.1X>XB._.p.x.C.C.v.C.j.o.o.k.V.f.{ R ..*.#                   .   . o +   p fXvXvX",
"vXvXvXfXi   . o   .     E j.c.v.c.N._.W.`.[._.>XZ.N.Y.W.Y.z.+.o.u.@.o.~ ` { } n.P.a.=.          .       o     .XzXvXvXvX",
"vXvXzXvXvXoX    & E ' @.u.c.p.B.B.Z.(.1X1XA.2X'.T.W.(.W.C.M.C.k.@. .( -.) M / 2.m.j.U.a.              $   % @XvXvXvXvXvX",
"vXvXvXzXvXvXrXr k.$.u.@.$.x.v.c.B.T.1XA.A.T.n.g.o.4.h.W.).'.wXeX3X:.f.D.V.^.E.g.O.x.B.2Xs.    .   o +   u iXvXvXzXvXvXvX",
"vXvXzXvXzXvXzX9.k.o. .O.$.i.N.A.A.M.C.A.].O.J 4.h.U.(._.(.'.1X7X7X<X`.2X).C.h.4.5.x.5XeX%X@     o     oXzXvXvXvXzXvXvXvX",
"vXvXvXvXvXdX9XU.f.+.x.u.j.B.W.`.R.z.`.`.&X' z.Z.).].,X:XU.)._.(.<X`.Y.H.) k W -.U.<X4X&XR T @ +   + @XvXvXvXvXvXvXvXvXvX",
"vXvXvXvXaXI.Y./.^.Y.W.W.`.R.E.C.W.[.5X].n.m.b.w.D.:.:.f.R.2XwX,XD.2.) / k f ` z.T.7Xb.R ] R -.  t uXvXvXvXvXvXvXvXvXvXvX",
"vXvXvXvXH.x.x.B.4XC.M.Y.z.A.V.b.>X<X:Xg.` G I 1.G.L.~.:X^.2X4XQ.P.].,X,X:X%Xn.A.`.1Xb.#.n.q.v.,XgXvXzXvXvXvXvXvXvXvXvXvX",
"vXvXvXqXj.u.v.A.2X`.Z.C.I.U.Y.2XJ.S.>.m x C G o.E.).).2X2X'.(.Z.`.2X2X2X2X5X).Z.R.R.U.R.W.].].U.dXzXvXvXvXvXvXvXvXvXvXvX",
"vXvXvXdXl.v.Y.1X[./.k.I.A._.wXH.v 1 ; ; > ^ z.`.^./.E.Z.1X6Xn.5.2.g.w.H.J.V.h.z.m.l.N.5X=X` ` 3.$XjXzXvXvXvXvXvXvXvXvXvX",
"vXvXvXvXlXqX5X6X6Xh.v L.,X,X,X*.2 f l f.5.B.`.].).C.B.2X0Xn.J A ) ) D 1.F.M z W @.v.A.5XG.2.4.~  .S.jXvXvXvXvXvXvXvXvXvX",
"vXvXvXvXvXvXcXsX3XS.< _ -.:.7.b f -.C.R.'.7X6X=X,X6X2XeX*XH h c c V D G 8.a 4 Q j.Z.5X>X:.&.! Z ) q.H.dXvXvXvXvXzXvXvXvX",
"vXvXzXvXvXzXvXzX9XG.f ; ; a g m m 5.~.=X4X=X9.~ &X=X0X9X*.z %.S j C A F J s 3 y.T.1X7XG.` o.h.B.A.(.(.7XjXvXzXvXvXvXvXvX",
"@XvXvXvXcXvXvXvXdX~._ , a s x v f W ! 3.q...D z H H <.<.M 6 2 z h j *.C g l L.A.0X]./.C.B.A.'.T.1X2X'.wX-XvXvXvXvXvXgXOX",
"   XgXvXzXvXvXvXcXQ.f.g g K n j M > 1 k Z ) j W B M c c z N : : > a k M 2 m Q.>X0X4X^.E./.4X7X7X0X0X4XeX$X-XzXzXvXuXu   ",
"+   e rXvXvXvXvXvX3XD.v x x x B : ; > s j V h a < h b V d z 1 < 2 > : : 4 6 v 6.g.H.H.K.K.=X!.S.3.3.| ..| R hXvX+X*   $ ",
"  +   . @XvXvXvXvXaXJ.H f W 4 1 a 2 > a B >.s 6 > K s c x s a s x n 2 > m z 2 h V V c H ~ ~ K A G I 1.S.3.1.;X.X    o   ",
"    o      XgXvXvXzXU.9.l 1 1 x c d B B N z 8 > , z x H &.a s c *.S M W W < a j C C C V , h C F I Y t.1.R Y 0.- + o     ",
"      o .   u iXvXvX3XI.*.s h A C J n =., 2 d d x z v H W 2 x h &.s 2 2 a 2 s j F G G j 1 c C L I Y 0.r.| | r.5         ",
"      . . $   = @XzXlX~.D.c c V &.V V %.f d n e.F.M 2 2 V Z j / a z K &.a < a V <.D A s W K J 6.U Y Y 7.Y Y $X5 .       ",
"      . .   +     .XzX-XI.L V V J V c 1 2 g x c *.n a V ~ S.e.V 1 j ! 6.2 ; a A F A V < 2 x C F P I I G I 1.w.d.  .     ",
"              o o   i qXI.2.C C J A j *.f.*.v x h g x C F J C x 1 c S ) h > < h V V d > a g V C F P F ,.R R R [ 3       ",
"                . +   = tXe.F J L K ~ I.Q.I.D.4.2.-.Z A A F V x a b S Z k a h Z ) c B z / V V F A A F G Y Y R [ 8       ",
"                  . +   5 d.F.r.} 6.#XzXxXjXqXqX-XQ.S.` ) H ) 4.9.9.7.2./ k V D 7.P <.H D } I I T ] [ [ H.K.9XD.#       ",
"                . .   o .   p fXvXzXvXvXvXvXvXvXvXvXvXcXhXhXpXaXpXpXdXpX%X%XV 8.U U 1.r.K P T 3.m.n.n.U.>X0X0XXX        ",
"                .       . +   0 uXvXvXvXvXvXvXvXvXvXvXvXvXvXvXvXvXvXvXxXgXpXC L T I | ..L M E 8 %.;.a.a.=.9 X           ",
"+                     .     +     +XvXvXvXvXvXvXvXvXvXvXvXvXvXvXvXvXvXvXvXpX,.] | | 1.,.E $                         . o ",
"  o .   .   .                 +     }.fXvXvXvXzXvXvXvXvXvXvXvXvXvXvXvXzXzXzXvXxXyXy X + X                     . . . o   ",
"}.    o   .                     . +   0 rXvXzXzXvXvXvXvXvXvXvXvXvXvXvXvXvXvXvX+X+   +     .               . .   +     .X",
"vX+X    +                           +     +XvXvXvXvXvXvXvXvXvXvXvXzXvXvXvXvX X    +                           +   = tXvX",
"vXvXtX=   $ .                 .       o .    XgXvXvXvXvXvXvXvXvXvXvXvXvXiXu   + o     .                   o +   u fXvXvX",
"vXvXvXiXu   . o                     .   . +   w uXvXvXvXvXvXvXvXvXvXzX@X$   + .   .     .               +     .XzXvXvXvX",
"vXvXvXvXzXoX    + .                         +   % +XvXvXvXvXvXvXvXzX X    +                 . .   . . +   % rXvXvXvXvXvX",
"vXvXvXvXvXvXtX*   + . . .                     o      XgXvXzXvXvXiXt   o .                     .   . +   i iXzXvXvXvXvXvX",
"vXvXvXvXvXvXvXiXt   + o   .                     . o   u iXvXvXrX0   + .                         o .   .XzXzXvXzXvXvXvXvX",
"vXvXvXvXzXvXvXvXgX X    o                         . $   = +XoX    $                         . +   + +XvXvXzXzXvXvXvXvXvX",
"vXvXvXzXvXzXzXvXvXvX@X%   + .                     .   +         o   .                     . +   t uXvXvXvXvXzXzXvXvXvXvX",
"vXvXvXvXvXvXvXvXvXvXvXiXu   o .     .                   . o o .                         o     .XgXvXzXvXvXvXvXvXvXvXvXvX",
"vXvXvXvXvXvXvXvXvXvXvXvXgX.X    + . .                     .                         . $     @XvXvXvXvXvXvXvXvXvXvXvXvXvX",
"vXvXvXvXvXvXvXvXvXvXvXzXvXvXrX$   +                                               o o   w uXvXvXvXvXvXvXvXvXvXvXvXvXvXvX",
"vXvXvXvXvXvXvXvXvXvXvXvXvXvXvXuXe   + o                                         o .   |.gXvXvXzXvXzXvXvXvXvXvXvXvXvXvXvX",
"vXvXvXvXvXvXvXvXvXvXzXvXzXvXzXvXgX X    o                                     +     OXvXvXvXvXvXvXvXvXvXvXvXvXvXvXvXvXvX",
"vXvXvXvXvXvXvXvXvXvXvXvXvXvXvXvXvXvXrX+   .                                 o   0 uXvXvXvXvXvXvXvXvXvXvXvXvXvXvXvXvXvXvX",
"vXzXvXvXvXvXvXvXvXvXvXvXvXvXvXvXvXvXvXtXq   .     .     .             . . .   i fXvXvXvXvXvXvXvXvXvXvXvXvXvXvXvXvXzXvXvX"
};
