/* XPM */
static char *result[] = {
/* columns rows colors chars-per-pixel */
"60 60 205 2 ",
"   c black",
".  c #010101",
"X  c #020202",
"o  c gray1",
"O  c #040404",
"+  c gray2",
"@  c #060606",
"#  c #070707",
"$  c gray3",
"%  c #090909",
"&  c gray4",
"*  c #0B0B0B",
"=  c #0C0C0C",
"-  c gray5",
";  c #0E0E0E",
":  c gray6",
">  c #101010",
",  c #111111",
"<  c gray7",
"1  c #131313",
"2  c gray8",
"3  c #151515",
"4  c #161616",
"5  c gray9",
"6  c #181818",
"7  c #191919",
"8  c gray10",
"9  c #1B1B1B",
"0  c gray11",
"q  c #1D1D1D",
"w  c #1E1E1E",
"e  c gray12",
"r  c #202020",
"t  c gray13",
"y  c #222222",
"u  c #232323",
"i  c gray14",
"p  c #252525",
"a  c gray15",
"s  c #272727",
"d  c #2A2A2A",
"f  c gray17",
"g  c #2C2C2C",
"h  c gray18",
"j  c #2F2F2F",
"k  c #313131",
"l  c #323232",
"z  c #343434",
"x  c gray22",
"c  c #393939",
"v  c #3C3C3C",
"b  c gray24",
"n  c #3E3E3E",
"m  c gray25",
"M  c #434343",
"N  c #444444",
"B  c #464646",
"V  c gray28",
"C  c #484848",
"Z  c #4B4B4B",
"A  c #4C4C4C",
"S  c gray30",
"D  c gray31",
"F  c #535353",
"G  c gray33",
"H  c #565656",
"J  c gray34",
"K  c gray35",
"L  c #5A5A5A",
"P  c #5B5B5B",
"I  c gray36",
"U  c #5D5D5D",
"Y  c #5F5F5F",
"T  c #606060",
"R  c gray39",
"E  c #656565",
"W  c gray40",
"Q  c #676767",
"!  c #686868",
"~  c DimGray",
"^  c #6A6A6A",
"/  c gray42",
"(  c #6C6C6C",
")  c gray43",
"_  c gray44",
"`  c #717171",
"'  c gray45",
"]  c #747474",
"[  c gray46",
"{  c #767676",
"}  c #777777",
"|  c #797979",
" . c #7B7B7B",
".. c #7C7C7C",
"X. c #808080",
"o. c #818181",
"O. c #838383",
"+. c #848484",
"@. c #868686",
"#. c gray53",
"$. c #888888",
"%. c gray54",
"&. c #8B8B8B",
"*. c #8D8D8D",
"=. c gray56",
"-. c gray57",
";. c #929292",
":. c #939393",
">. c gray58",
",. c #959595",
"<. c gray59",
"1. c #979797",
"2. c #989898",
"3. c gray60",
"4. c #9A9A9A",
"5. c gray61",
"6. c #9D9D9D",
"7. c #9F9F9F",
"8. c #A0A0A0",
"9. c gray63",
"0. c #A2A2A2",
"q. c gray64",
"w. c #A4A4A4",
"e. c #A5A5A5",
"r. c gray66",
"t. c #A9A9A9",
"y. c #AAAAAA",
"u. c #ACACAC",
"i. c #AEAEAE",
"p. c gray69",
"a. c #B1B1B1",
"s. c #B2B2B2",
"d. c gray70",
"f. c #B4B4B4",
"g. c gray71",
"h. c #B7B7B7",
"j. c gray72",
"k. c #B9B9B9",
"l. c gray73",
"z. c #BBBBBB",
"x. c #BCBCBC",
"c. c gray74",
"v. c gray",
"b. c gray75",
"n. c #C0C0C0",
"m. c #C1C1C1",
"M. c gray76",
"N. c #C3C3C3",
"B. c #C5C5C5",
"V. c #C6C6C6",
"C. c gray78",
"Z. c #C8C8C8",
"A. c gray79",
"S. c #CBCBCB",
"D. c gray80",
"F. c #CDCDCD",
"G. c #CECECE",
"H. c gray81",
"J. c #D0D0D0",
"K. c gray82",
"L. c #D2D2D2",
"P. c LightGray",
"I. c gray83",
"U. c #D5D5D5",
"Y. c gray84",
"T. c #D7D7D7",
"R. c #D8D8D8",
"E. c gray85",
"W. c #DADADA",
"Q. c gray86",
"!. c gainsboro",
"~. c #DDDDDD",
"^. c gray87",
"/. c #DFDFDF",
"(. c gray88",
"). c #E1E1E1",
"_. c #E2E2E2",
"`. c gray89",
"'. c #E4E4E4",
"]. c gray90",
"[. c #E6E6E6",
"{. c #E7E7E7",
"}. c gray91",
"|. c #E9E9E9",
" X c #EAEAEA",
".X c gray92",
"XX c #ECECEC",
"oX c gray93",
"OX c #EEEEEE",
"+X c #EFEFEF",
"@X c gray94",
"#X c gray95",
"$X c #F3F3F3",
"%X c #F4F4F4",
"&X c gray96",
"*X c #F6F6F6",
"=X c gray97",
"-X c #F8F8F8",
";X c #F9F9F9",
":X c gray98",
">X c #FBFBFB",
",X c gray99",
"<X c #FDFDFD",
"1X c #FEFEFE",
"2X c white",
/* pixels */
"  *.@X2X,X<X>X:X2X2X2X2X2X2X2X2X2X2X2X>X<X,X&X>.    6 X O o # + % e     f.,X2X,X1X2X2X2X2X2X2X2X2X2X2X<X*X<X-X:X2X/.K   ",
"6   U K.,X-X>X=X<X2X2X2X2X2X2X2X2X2X2X,X,X&X2X=Xg.O   w   + & < q   I E.1X:X<X>X>X2X2X2X2X2X1X1X2X2X2X1X*X;X1X>Xn.f   2 ",
"  9     h.:X2X-X<X2X2X2X2X2X2X2X2X2X2X<X>X2X>X>X1XF.D   9 - 0 -   O.OX1X1X:X<X>X1X2X2X2X2X2X1X<X1X2X2X<X*X2X+X<.    3   ",
". $ 9 $   >.*X2X<X2X2X2X2X2X2X2X2X2X2X,X:X1X2X<X-X;XoX&.  e     i.*X2X=X1X<X-X,X,X2X2X2X2X2X1X<X1X1X<X:X2X(.E   5 1   $ ",
"O o O * 8   Y ^.2X2X1X2X2X2X2X2X2X2X2X,X&X,X>X:X1X>X1X,Xa.  M P.2X>X*X1X;X<X1X<X1X2X2X2X2X2X2X2X2X,X,X2XS.j   q * + # # ",
"    X X @ e   i n.<X<X,X:X1X>X1X1X>X2X1X2X1X2X2X1X1X<X1X2X^..X2X,X,X<X2X<X1X1X<X2X1X2X<X1X1X1X*X>X2X#Xr.    0 X +   $ . ",
". . X . X o 4     1.@X2X>X,X,X,X,X2X>X1X2X2X2X2X2X2X2X2X2X2X2X<X2X2X2X2X2X2X2X2X2X1X<X<X2X,X=X,X2X(.|   + ,   .   .   . ",
". . o X   O . > 7   Q `.2X>X,X>X:X,X<X2X2X2X2X2X2X2X2X2X2X<X1X2X2X2X2X2X2X2X2X2X2X<X<X<X>X,X2X2XJ.m   r *   . . . . . . ",
". . X X . X . o @ e   z J.2X2X=X<X<X<X2X2X2X2X2X2X2X2X2X2X2X2X2X2X2X2X2X2X2X2X2X1X>X2X<X:X1X*Xj.    9 . . . . . . . . . ",
". .     O X     o O 9     t.*X1X>X2X>X2X2X2X2X2X2X2X2X2X2X2X2X2X2X2X2X2X2X2X2X2X2X2X>X;X2X(.&.  2 4 . O . . . . . . . . ",
"  X X .     X o . X   < ;   ] ^.2X>X,X<X2X2X1X<X2X2X2X2X2X2X2X2X2X2X2X2X1X2X<X1X2X<X2X2XG.V   q : X o X . . . . . X . X ",
"O O . . . . . . . . .   & w   b D.2X-X:X,X-X<X:X<X2X2X2X2X2X2X2X2X2X2X1X:X<X<X2X=X2X2Xi.    9 o   . . . . . . . . X . . ",
"4 O X . . . . . . . . . .   7     g.:X2X;X:X2X:X<X2X2X2X2X2X2X2X2X2X2X<X;X<X:X>X1XXX@.  @ 6   . . . . . . . . . .   = 5 ",
"  > &   . . . . . . . .   O o 6 X   %.}.2X:X;X1X2X2X2X2X2X2X2X2X2X2X2X1X:X=X1X>XU.I   r , + +   . . . . . . . .   : *   ",
"..  . 4   . . . . .   .   O - O = 8   Z S.>X1X;X:X2X2X2X2X2X2X2X2X2X2X>X=X2X-Xg.1   w O O X X . . . . . . .   X q     2.",
"&Xu.    q   . . . . o .   O @ @ + O q     t.>X,X>X2X2X2X1X2X2X2X1X2X2X;X2X.X+.  o 5 @ o X O . X X . .   X . @ 8   v Z.>X",
"2X<XH.V   r - X X   * + O X .   . .   < X   @.|.2X,X:X<X;X>X<X2X;X=X:X2X).U   9 & . .   X .   X o . @ . # < 7   ..}.2X;X",
",X<X2X'.{   O 1 . # X o o . . . . . .   , 0   J L.2X,X:X2X>X,X&X-X:X<XN.p   q # o . . . . . o X + O X O 5     6.=X2X>X>X",
"<X:X-X<X=X0.    q .   o X #   . . . . + X # y   > a.=X2X-X>X<X:X2XXX9.    7 . * O   . . . . . o + o + y   k v.1X2X:X,X1X",
",X2X,X>X<X<XB.C   t % O + . . . . . . o $ X   5 $   @.|.2X>X-X2X!.R   8 4 X + . o . . . . . X @   , 7   ! !.2X,X=X<X2X,X",
"<X,X:X,X:X>X,XY.]   0 < X o   . . . . $ X O o X * 2   A Y.<X>XM.3   q + + O # % + . . . . . . o 6     q.$X2X-X>X%X>X1X2X",
"<X1X2X<X2X,X>X2X$X1.    6 o o + X o X   X o . o . # 0   y n.r.    9 . .   O O   o +   O .   X 0   0 c.2X2X,X1X2X1X<X2X2X",
"2X2X2X2X2X2X2X1X>X1Xz.g   r < X # # o X . . . .   $   3       $ 3   o   .     . . O + + X , 9   T U.2X>X2X2X2X2X2X2X2X2X",
"2X2X2X2X2X2X2X2X1X>X2X!./   < 1 o O @ . . . . .   @ + o ; 3 6 ; o o O O   . . .   X @ X 8 @   ,.XX2X&X>X2X2X2X2X2X2X2X2X",
"2X2X2X2X2X2X2X2X<X-X,X>X#X8.    e + #   . . . . O X . $ o % + o @ o . +   . . . . o $ i   # l.*X<X;X1X1X2X2X2X2X2X2X2X2X",
"2X2X2X2X2X2X2X2X:X-X;X>X,X2Xm.w   e &   . . . . X o + . O O + # O O +   . . .   . : 7   P !.1X-X:X>X%X>X2X2X2X2X2X2X2X2X",
"2X2X2X2X1X1X<X2X1X1X<X>X<X:X2XH.K   8 >   . . . O o . .   X O . + X O X X     . 6 -   %. X2X<X1X2X*X,X,X1X,X2X1X<X2X<X<X",
",X;X,X,X>X,X<X*X1X2X2X2X2X,X$X2X{.&.    5   % O O   . . . . . . . .   X o - . r     t.*X2X-X<X2X2X2X2X2X,X,X1X>X:X,X>X:X",
"2X1X-X2X,X-X1X;X<X2X2X2X2X<X1X;X,X>Xk.t   u + X O . . . . . . . . . .   O & i   I D.<X<X&X,X<X2X2X2X2X1X>X,X-X<X2X>X>X2X",
"n.:X1X,X:X,X<X<X2X2X2X2X2X2X,X,X;X,X2XT.H   w -   . . . . . . . . .   # 1 2   $.+X2X<X<X<X,X1X2X2X2X2X2X<X<X1X,X-X<X+Xi.",
"  :.{.1X;X:X2X,X2X2X2X2X2X1X;X2X1X>X<X2X|.@.  @ 3   . . . . . . .   O 9     q.1X<X:X-X>X-X;X1X2X2X2X2X2X,X1X:X>X2XY./   ",
"0   L C.2X:X<X1X1X2X1X2X2X<X=X>X1X,X<X-X2X=Xi.O   9     . . . .   $ 3   M n.2X;X-X1X,X,X<X;X<X2X2X2X2X1X,X<X2X<Xj.l   u ",
"X 8   + j.2X-X:X;X1X>X;X>X>X2X1X2X1X2X1X:X1X2XS.N   t * . . . . 3 o    .(.2X2X-X>X2X2X1X2X2X1X<X<X1X<X,X:X2X$X<.    4   ",
".   5     <.#X2X>X*X2X;X<X,X2X2X2X2X2X,X:X,X-X2X|.o.  3 : + X 6     y.*X2X%X1X<X<X2X2X2X2X2X1X1X2X2X<X,X2X^./   7 ,   . ",
". .   1 :   ( ~.2X<X:X1X;X<X2X2X2X2X2X1X<X2X>X;X,X;Xw.    i e   l M.<X2X;X<X<X:X,X2X2X2X2X2X1X<X:X-X1X2XA.x   q O   . . ",
".   O % = y   c z.:X<X,X%X<X2X2X2X2X2X,X2X>X>X2X:X<X2XV.c     ) !.1X>X>X:X;X*X1X1X2X2X2X2X2X;X2X;X2XoX5.    w # $ . . . ",
". . X - # X 9     3.&X1X>X1X2X2X2X2X2X,X<X:X,X;X:X*X:X2X/.@.0.OX,X,X:X1X,X,X2X>X-X2X2X2X2X2X2X:X2X~./   , < X + + O   . ",
". . o X o X . 2 5   ' ].2X>X<X,X1X1X1X2X<X<X2X2X2X<X2X:X2X1X1X2X>X1X1X<X<X2X2X<X2X2X<X<X2X,X>X2XY.S   w &   . . . . . . ",
". . . . . . .   @ w   c H.:X:X%X=X;X;X2X2X2X2X2X2X2X2X2X1X2X2X1X2X2X2X2X2X2X2X2X1X<X;X:X,X;X=Xp.    0 #   . . . . . . . ",
". . . . . . .   + & q     e.OX2X-X>X>X1X2X2X2X2X2X2X2X2X2X2X2X2X2X2X2X2X2X2X2X2X2X:X%X*X2X[.X.  - 6 o + . . . . . . . . ",
". . . . . . . . @ # X 1 :   } _.2X:X<X2X2X2X2X2X2X2X2X2X2X2X2X2X2X2X2X2X2X2X2X2X1X;X:X1XP.H   e % @ @ % . . . . . . . . ",
". . . .   . . . $ $ O X * w   V I.2X;X1X2X2X2X2X2X2X2X2X2X2X2X2X2X2X2X2X2X2X2X2X1X2X:Xj.    y X o . = X   .   . . . . X ",
"7 +   . o o .   . +   @ . . q     s.:X2X1X2X<X2X1X2X2X2X1X1X1X2X2X1X<X<X1X<X<X<X2X+X=.    5   . X .   o o   o X o o # 5 ",
"  5 % o @ X # O .   .   . X   7 .   #._.2X-X>X-X,X1X2X1X1X1X1X<X<X1X1X:X;X;X,X2XU.Y   q > X . . . . . . O O o + O : <   ",
"@.    5 X @ . X X . . . . .   X % e   M A.2X-X$X:X2X2X1X2X2X1X,X,X1X1X<X<X,X:Xj.q   e O   +   . . . . o X @ +   r     6.",
":Xd.    6 o +   . . . . . . X X X O w     s.2X>X1X2X2X1X1X1X>X2X<X>X<X,X2X&X3.  O 6   o o o   . . . . . + X + w   n A.>X",
"2X:XD.n   e * o o   . . .   X + . . . 1 &   -.OX<X,X1X1X<X,X<X2X;X>X1X2XR.)   w : . O O   . o . . . . X X , 7   ) {.<X2X",
",X:X2XQ._   - 1   .   X   .   . O . O   - q   F P.1X1X2X1X1X>X<X,X2X=Xx.s   t &   @ + . @ X X   X .   . 0     4.*X2X>X>X",
"2X1X,X1X*Xw.    0 O + . O . . . . .   . . . 0   h g.,X<X-X1X<X:X2X#X,.    6   . .     . X   + * # @ + q   d B.;X<X1X2X2X",
"2X2X2X,X<X2XA.x   e # $ @ o . . . . . X X     5     -.@X<X*X>X2X^.~   6 >   . . . . . . . . X & . ; 9   [ ^.,X>X,X1X2X2X",
"2X2X<X>X1X;X2X^.W   8 3   @   . . . .   . X     ; 5   ( W.2X>XZ.V   r @   . . . . . . . . .   o 7 #   7.=X-X:X:X,X1X2X2X",
"2X2X1X:X;X>X,X2XoX>.    6   . . . . .     .   .   % y   b k.q.    r X   . . . . . . . . .   # t   6 j.-X,X-X&X;X=X2X2X2X",
"2X2X2X*X;X;X-X,X2X<Xb.k   w #   . .   . X .   . o # o 7         4   @ o . . . . . . . .   : 7   ! L.2X>X:X>X=X&X>X2X2X2X",
"2X2X1X2X<X<X2X1X,X>X2XQ.^   5 -   X + X . . . . o . .   > 1 3 =   .   . .     . X . o   4     2.XX2X:X,X2X<X<X2X1X2X2X2X",
"2X2X2X2X2X2X2X2X,X1X;X2XoX4.    9 @ #   . . . . . . . . . O X . . . . .           O & r     z.1X>X1X>X,X2X2X2X2X2X2X2X2X",
"2X2X2X2X2X2X2X2X1X>X1X-X<X1Xm.a   q X . . . . . . . . . . . . . . . .             > 5   G T.2X>X;X1X>X1X2X2X2X2X2X2X2X2X",
"2X2X2X2X2X2X2X2X-X1X1X1X,X<X2XJ.Y   r 1   . . . . . . . . . . . . . . .         4 *   =. X2X<X:X1X=X>X2X2X2X2X2X2X2X2X2X",
"2X2X2X2X2X2X2X2X<X>X:X,X*X>X-X<XXX;.    1   . . . . . .   . . . . . . X .     9     t.,X2X>X>X,X,X,X1X>X2X2X2X2X2X2X2X2X",
"2X<X1X2X2X1X>X1X;X1X>X<X<X2X;X2X:X<Xm.8   -   X   X . X O . o . . .   . X   ,   B K.2X<X,X1X,X<X,X2X<X1X2X2X<X1X2X2X<X2X",
":X%X<X1X1X<X,X,X2X2X2X2X2X2X2X2X1X<X2XH.S   = O . % O X o o X . O o X @ O >   ` ].2X1X2X2X2X2X2X2X2X2X2X<X<X>X1X>X-X<X:X"
};
