/* XPM */
static char *result[] = {
/* columns rows colors chars-per-pixel */
"49 60 207 2 ",
"   c #000000",
".  c #0E0A0C",
"X  c #0D1112",
"o  c #2A0000",
"O  c #2E1100",
"+  c #311900",
"@  c #21211F",
"#  c #3A2A1C",
"$  c #2C2928",
"%  c #312A26",
"&  c #3D352D",
"*  c #36312E",
"=  c #3C3836",
"-  c #47382C",
";  c #423B35",
":  c #443E3A",
">  c #413733",
",  c #513E26",
"<  c #7E6F00",
"1  c #52402E",
"2  c #4C443C",
"3  c #47423C",
"4  c #544A3F",
"5  c #4C4642",
"6  c #4D4D4C",
"7  c #4D4A46",
"8  c #534B45",
"9  c #5A4F46",
"0  c #524D4A",
"q  c #584F49",
"w  c #55514F",
"e  c #5B534D",
"r  c #595046",
"t  c #555352",
"y  c #5A5453",
"u  c #5C5B5B",
"i  c #5A5958",
"p  c #635B55",
"a  c #6A5E52",
"s  c #635D5B",
"d  c #695F58",
"f  c #61584D",
"g  c #6C6256",
"h  c #65615F",
"j  c #6C635B",
"k  c #74695D",
"l  c #73675D",
"z  c #656364",
"x  c #6B6562",
"c  c #66686C",
"v  c #6B6A6D",
"b  c #696769",
"n  c #706761",
"m  c #726A64",
"M  c #7A6E62",
"N  c #746E6C",
"B  c #75706E",
"V  c #7C746C",
"C  c #7E7166",
"Z  c #6D6E71",
"A  c #726F71",
"S  c #6F7176",
"D  c #737173",
"F  c #7A7573",
"G  c #75757B",
"H  c #79777A",
"J  c #7B7A7C",
"K  c #7A7A79",
"L  c #82766B",
"P  c #827B74",
"I  c #837E7B",
"U  c #887F73",
"Y  c #988750",
"T  c #85807D",
"R  c #8A827C",
"E  c #8C8072",
"W  c #958A7C",
"Q  c #A3956B",
"!  c #B3A668",
"~  c #C8B459",
"^  c #CDBA7D",
"/  c #7B7C82",
"(  c #817F83",
")  c #7E8288",
"_  c #838284",
"`  c #8B8684",
"'  c #8E8986",
"]  c #83848A",
"[  c #888789",
"{  c #8C8A8B",
"}  c #928D8B",
"|  c #978E83",
" . c #96928E",
".. c #99938D",
"X. c #9B9185",
"o. c #8D8D93",
"O. c #808590",
"+. c #918F91",
"@. c #8E919A",
"#. c #8E9095",
"$. c #939194",
"%. c #9B9594",
"&. c #94959B",
"*. c #999799",
"=. c #9B9A9C",
"-. c #9D9996",
";. c #A29C95",
":. c #A29E9C",
">. c #A4A09D",
",. c #AAA29B",
"<. c #ADA397",
"1. c #B2A89D",
"2. c #949AA4",
"3. c #9C9CA2",
"4. c #9A9EAB",
"5. c #969DAA",
"6. c #A29FA2",
"7. c #9EA0A7",
"8. c #9DA2AC",
"9. c #9FA6B4",
"0. c #A4A3A4",
"q. c #AAA6A4",
"w. c #ADA9A4",
"e. c #A4A5AB",
"r. c #A6A8AE",
"t. c #AAAAAC",
"y. c #A8A7A8",
"u. c #B2AAA3",
"i. c #B3AEAA",
"p. c #B0A7A1",
"a. c #BFB6AE",
"s. c #B5B2A6",
"d. c #A2A7B2",
"f. c #A6AAB3",
"g. c #ACADB2",
"h. c #A7ADBA",
"j. c #B1AFB2",
"k. c #AEB0B5",
"l. c #ADB2BB",
"z. c #B4B2B4",
"x. c #BAB5B4",
"c. c #B4B5BB",
"v. c #B9B7B9",
"b. c #B6B9BF",
"n. c #BBBBBC",
"m. c #BEB9B6",
"M. c #C9B998",
"N. c #C0BEBC",
"B. c #C7C2BE",
"V. c #D4CCBF",
"C. c #AFB7C0",
"Z. c #B6BAC4",
"A. c #BCBDC3",
"S. c #B6BDCA",
"D. c #BABEC8",
"F. c #C1BFC1",
"G. c #BFC1C5",
"H. c #BEC2CB",
"J. c #BDC4D2",
"K. c #C3C3C5",
"L. c #CAC6C5",
"P. c #C4C6CB",
"I. c #C6C8CF",
"U. c #CBCACD",
"Y. c #CCC8C6",
"T. c #D1CECC",
"R. c #D5CDC4",
"E. c #D3D0CE",
"W. c #C0C7D1",
"Q. c #C5C9D3",
"!. c #CCCDD2",
"~. c #C4CCDA",
"^. c #CACED9",
"/. c #D1CFD1",
"(. c #CED0D6",
"). c #CDD2DB",
"_. c #D3D2D3",
"`. c #D8D6D4",
"'. c #D4D6DB",
"]. c #D6D8DE",
"[. c #DBDBDC",
"{. c #DCD8D5",
"}. c #E2DEDA",
"|. c #E2DCD3",
" X c #E1D8C7",
".X c #E3E2DE",
"XX c #DBDDE3",
"oX c #D7DAE1",
"OX c #DEE0E5",
"+X c #DDE2EC",
"@X c #DCE3F0",
"#X c #E3E3E5",
"$X c #E9E6E2",
"%X c #EAE8E5",
"&X c #E3E5EB",
"*X c #ECECED",
"=X c #E7E8ED",
"-X c #F0EDEB",
";X c #F4F1EE",
":X c #E6EAF3",
">X c #ECEEF2",
",X c #ECF2FB",
"<X c #F3F3F4",
"1X c #F4F5FA",
"2X c #FAFAFD",
"3X c #F6F8FC",
"4X c None",
/* pixels */
"4X4X4X4X4X4X4X4X4X4X4X4X4X4X4X4X4X4X4X4X4X4X4X4X4X4X4X4X4X4X4X4X4X4X4X4X4X4X4X4X4X4X4X4X4X4X4X4X4X",
"4X4X4X4X4X4X4Xl.f.H.l.D.f.4X4X4X4X4X4X4X4X4X4X4X4X4X4X4X4X4X4X4X4X4X4X4X4X4X4X4X4X4X4X4X4X4X4X4X4X",
"4X4X4X4X4X^.'.Q.Z.g.l.t.y.#X!.4X4X4X4X4X4X4X4X4X4X4X4X4X4X4X4X4X4X4X4X4X4X4X4X4X4X4X4X4X4X4X4X4X4X",
"4X4X4X4X^.3X>XoXc.c.'.[.U.#X2Xn.o.4X4X4X4X4X4X4X4X4X4X4X4X4X4X4X4X4X4X4X4X4X4X4X4X4X4X4X4X4X4X4X4X",
"4X4X4X3X1X*X*X2X;X}.<X2X2X<X;X<X2X4X4X4X4X4X4X4X4X4X4X4X4X4X4X4X4X4X4X4X4X4X4X4X4X4X4X4X4X4X4X4X4X",
"4X4X@X,X&XK.z.=X;X-X;X<X.XV..X<X2XXX4X4X4X4X4X4X4X4X4X4X4X4X4X4X4X4X4X4X4X4X4X4X4X4X4X4X4X4X4X4X4X",
"4X4X,X:XoXQ O | -X.X-X.XY < M.*X<X2XP.4X4X4X4X4X4X4X4X4X4X4X4X4X4X4X4X4X4X4X4X4X4X4X4X4X4X4X4X4X4X",
"4X~.,X:X>XR.! s.-X.X.X.X^ ~  X3X<X>XU.4X4X4X4X4X4X4X4X4X4X4X4X4X4X4X4X4X4X4X4X4X4X4X4X4X4X4X4X4X4X",
"4X~.:X,X>X:X&X:X[..X#X-X<X;X<X3X<X*X#X4X4X4X4X4X4X4X4X4X4X4X4X4X4X4X4X4X4X4X4X4X4X4X4X4X4X4X4X4X4X",
"4XJ.+X+X@X&X@XXXT.H.`..X>X1X<X<X<X>X%XK.4X4X4X4X4X4X4X4X4X4X4X4X4X4X4X4X4X4X4X4X4X4X4X4X4X4X4X4X4X",
"4XJ.).).(.G.G.H.(.) U.[..X.X%X*X*X*X%XA.4X4X4X4X4X4X4X4X4X4X4X4X4X4X4X4X4X4X4X4X4X4X4X4X4X4X4X4X4X",
"4XS.Z.Z.G.U.H.k.y.c >.B.[.%X*X>X-X<XU.!.4X4X4X4X4X4X4X4X4X4X4X4X4X4X4X4X4X4X4X4X4X4X4X4X4X4X4X4X4X",
"4Xh.7.k.~.+XOX].G.{ N.#X*X>X<X<X<X%X'.<XOX4X4X4X4X4X4X4X4X4X4X4X4X4X4X4X4X4X4X4X4X4X4X4X4X4X4X4X4X",
"4Xd.8.d.J.'.).'.].[.OX#X%X*X*X,X*X&X<X>X=XQ.4X4X4X4X4X4X4X4X4X4X4X4X4X4X4X4X4X4X4X4X4X4X4X4X4X4X4X",
"4Xf.C.l.J.H.!.!.E.'.[.XXOX'.'.%X>X*X>X:XXX(.n.4X4X4X4X4X4X4X4X4X4X4X4X4X4X4X4X4X4X4X4X4X4X4X4X4X4X",
"4X4X2.Z.).^.Q.U.!.E.`.`.`.G.H.*X>X].A.OX&XP.b.4X4X4X4X4X4X4X4X4X4X4X4X4X4X4X4X4X4X4X4X4X4X4X4X4X4X",
"4X4X@.J.F.Z.3.f.!.'.'.z.t.Z.F.'.oXH.k.t.'.P.v.n.4X4X4X4X4X4X4X4X4X4X4X4X4X4X4X4X4X4X4X4X4X4X4X4X4X",
"4X4X4XC.F.Z.f.d.r.d.=.C.c.e.d.e A.t.t.z.j.Z.c.z.F.4X4X4X4X4X4X4X4X4X4X4X4X4X4X4X4X4X4X4X4X4X4X4X4X",
"4X4X4XC.2.( &.( o.l.r.F.( %.r.$.l.0.3.j./.g.t.F.F.oX4X4X4X4X4X4X4X4X4X4X4X4X4X4X4X4X4X4X4X4X4X4X4X",
"4X4Xh.5./ 9.S.( d.F.+X^.&.( N 6.F.` 3.v.%.z.j.oXz.&Xz.4X4X4X4X4X4X4X4X4X4X4X4X4X4X4X4X4X4X4X4X4X4X",
"4X4X5.9.Z.S.F.S.( ( Z.^.A A e.A 6.W.OX6.F.j.*.q.N.6.OX^.4X4X4X4X4X4X4X4X4X4X4X4X4X4X4X4X4X4X4X4X4X",
"4X4X5.9.S.C.( S.F.F.d.Z.H y ( l.b.F.( *.I.' t.6.j.!.K.&XA.4X4X4X4X4X4X4X4X4X4X4X4X4X4X4X4X4X4X4X4X",
"4X4X4X5.~.F.G d.6.*.j.&.@.3.$.*.r.[.A./.I.=.x.%.;.j.t.L.&XXX4X4X4X4X4X4X4X4X4X4X4X4X4X4X4X4X4X4X4X",
"4X4X4X9.F.h.o.*.h.( s ( 8.6.s p Z.&.I c.*.F.XXj.z.:.%.T ^.].4X4X4X4X4X4X4X4X4X4X4X4X4X4X4X4X4X4X4X",
"4X4X4X4.S.f.S 3.h 8 +.l.+.{ &.3.g.e.A.A.*.].*.I !.v.'.:.x.+.j.4X4X4X4X4X4X4X4X4X4X4X4X4X4X4X4X4X4X",
"4X4X4X5.8.h.o.2.: G 3.p ( &.Z.Q.( h { ].A.G.U.U.m :.' q.L.6.[.n.4X4X4X4X4X4X4X4X4X4X4X4X4X4X4X4X4X",
"4X4X4X5.d.d.2.D N H s _ z ( &.D.f._ { x n.:.g.q.j.OXF.%.p v.A.b.4X4X4X4X4X4X4X4X4X4X4X4X4X4X4X4X4X",
"4X4X4X5.d.f.o.v e.O./ A s 6.c ( r.e./ y.b.A.&X].c.:.' v.K.%.` K.I 4X4X4X4X4X4X4X4X4X4X4X4X4X4X4X4X",
"4X4X4X4Xh.f.f.H s 6.e.6 +.( w e.H r.c.+.o =.!.t.6.^.Y.[.n.;.R } z.4X4X4X4X4X4X4X4X4X4X4X4X4X4X4X4X",
"4X4X4X4X2.4.l.f.A D.8.h y : @.f.A b.3.{ 3.J e T t.K.n.' } } L.i.z.4X4X4X4X4X4X4X4X4X4X4X4X4X4X4X4X",
"4X4X4X4XO.8.@./ v l.e./ i 3.k.6.# e.=.3.c.g.*.0.].T 4 } _.F.P._.v.K 4X4X4X4X4X4X4X4X4X4X4X4X4X4X4X",
"4X4X4X4X4X@.] f.C.A 3.f.6.y / 4.8 e.o._ x z Z.g.*.q.n.#Xv.} !.j  .:.4X4X4X4X4X4X4X4X4X4X4X4X4X4X4X",
"4X4X4X4X4XO.&.D 8.) c A J w +.A > [ e *.A.s 7.A.F l K.v.1 q.A.m g t.4X4X4X4X4X4X4X4X4X4X4X4X4X4X4X",
"4X4X4X4X4XS c O.@.8.8.2.F 0 / =.l.r.H + t.6.2.y.y.P P.U.K...g 0.y.+.F 4X4X4X4X4X4X4X4X4X4X4X4X4X4X",
"4X4X4X4X4X4Xc / t v = ] 7.2.: A Q.t.P.*.e z D y M C *.'.].U.>.(.t.e ' 4X4X4X4X4X4X4X4X4X4X4X4X4X4X",
"4X4X4X4X4X4Xc i z Z G u 4.f.6.&.+ y $.0.A.-.T 9 z T D 0.j =.'.K.(.t.p 4X4X4X4X4X4X4X4X4X4X4X4X4X4X",
"4X4X4X4X4X4X4Xt t z t D 5 i 3.e.e.} > 5 F =.q.a R R ..N F z.y.P.U.' m 4X4X4X4X4X4X4X4X4X4X4X4X4X4X",
"4X4X4X4X4X4X4Xy 7 ; 5 y D ( : s 3.c.A.[ 5 q v.m I l v.K.K 7 x 0.z r ,.4X4X4X4X4X4X4X4X4X4X4X4X4X4X",
"4X4X4X4X4X4X4X4X0 t = 5 q x &.S D v { (.A.` m r p F  .v.R >. .} { F m.].4X4X4X4X4X4X4X4X4X4X4X4X4X",
"4X4X4X4X4X4X4X4X4Xw t 5 q H c v #.D D H _ g.v.t. .' ` $.U.B...,.q.z.`.].[.4X4X4X4X4X4X4X4X4X4X4X4X",
"4X4X4X4X4X4X4X4X4X6 c 6 6 G Z D h I *.I h *.f.t.Y.A.n.I.J f U./.:.R `.a.n.Y.4X4X4X4X4X4X4X4X4X4X4X",
"4X4X4X4X4X4X4X4X4X4Xu c v t i & r i s _ { { r 2 ; H $.p d w.q.l L - w.B.4X%.4X4X4X4X4X4X4X4X4X4X4X",
"4X4X4X4X4X4X4X4X4X4Xv v ) 6 z v w & _ _ } T V } $.' n m m M u.`.u.: t.;X}.4Xw.4X4X4X4X4X4X4X4X4X4X",
"4X4X4X4X4X4X4X4X4X4X4X3 ) ) i t K K ' g m R F V T V n j 1 ,.].-.` C w.x.Y.4X2 w.4X4X4X4X4X4X4X4X4X",
"4X4X4X4X4X4X4X4X4X4X4X6 G #.S 7 e D +.:.-.` L k F V j e g [.L.k ..m L i.}.T.4XR i.4X4X4X4X4X4X4X4X",
"4X4X4X4X4X4X4X4X4X4Xf.k.Z.*.o.&.B 8 h _ t.q.t.z.} L j 9 w.m.z.{.:.I X.,.T.}.4X4XB 4X4X4X4X4X4X4X4X",
"4X4X4X4X4X4X4X4X4XA.[.m.z.B.K.!.e.i 8 q x  .v.v.v.z.V ;.|.i.,.N.%.N N j i.{.' 4X3 ..4X4X4X4X4X4X4X",
"4X4X4X4X4X4X4X4X3.Y.<. .7.4X4Xq.{ +.4X4X4X4X4Xn.`.K.z.n.N.{.[.i.p.} f U R I V 4X4XV :.4X4X4X4X4X4X",
"4X4X4X4X4X4X4X4XF.:.4X4X4X4X4X4X4X4X4X4X4X4X4X4X4XU.U.L C L.N.` T.I w <.L a M.N.4X4Xy 4X4X4X4X4X4X",
"4X4X4X4X4X4X4X4X4X4X4X4X4X4X4X4X4X4X4X4X4X4X4X4X4X4XK._.{.B.k w.i.P 0 P X.a ;.R.` 4X4XV 4X4X4X4X4X",
"4X4X4X4X4X4X4X4X4X4X4X4X4X4X4X4X4X4X4X4X4X4X4X4X4X4X%.!.v.w.T._.;.N.( s 9 % l ( y 4X4X4Xj 4X4X4X4X",
"4X4X4X4X4X4X4X4X4X4X4X4X4X4X4X4X4X4X4X4X4X4X4X4X4X4X4X} a ;.B.F L q.a ; p W 9 : u.,.4X4XX s 4X4X4X",
"4X4X4X4X4X4X4X4X4X4X4X4X4X4X4X4X4X4X4X4X4X4X4X4X4X4X4X%.K.0.m ;.i.I ..p > X.L 2 1.1.4X4X4XK 4X4X4X",
"4X4X4X4X4X4X4X4X4X4X4X4X4X4X4X4X4X4X4X4X4X4X4X4X4X4X4X4XR g ,.i.z n W U * 5 f   e B = 4X4X@ w 4X4X",
"4X4X4X4X4X4X4X4X4X4X4X4X4X4X4X4X4X4X4X4X4X4X4X4X4X4X4X4X .z.R C ;.} F W j   > n . i ..4X4X4X4X4X4X",
"4X4X4X4X4X4X4X4X4X4X4X4X4X4X4X4X4X4X4X4X4X4X4X4X4X4X4X4X4Xr U R F j s $ l k $ U 8 4X<.4X4X4X4X4X4X",
"4X4X4X4X4X4X4X4X4X4X4X4X4X4X4X4X4X4X4X4X4X4X4X4X4X4X4X4X4X4XV g 4XP p g W e & 2 = 4X4X0 4X4X4X4X4X",
"4X4X4X4X4X4X4X4X4X4X4X4X4X4X4X4X4X4X4X4X4X4X4X4X4X4X4X4X4X4X4X4X4X4X4X4X& e k   k y 4X4X4X4X4X4X4X",
"4X4X4X4X4X4X4X4X4X4X4X4X4X4X4X4X4X4X4X4X4X4X4X4X4X4X4X4X4X4X4X4X4X4X4X4X4X4X% 4XT P 4X4X4X4X4X4X4X",
"4X4X4X4X4X4X4X4X4X4X4X4X4X4X4X4X4X4X4X4X4X4X4X4X4X4X4X4X4X4X4X4X4X4X4X4X4X4X4X4X4X4X4X4X4X4X4X4X4X"
};
