/* XPM */
static char *result[] = {
/* columns rows colors chars-per-pixel */
"60 60 241 2 ",
"   c #040100",
".  c #0B0302",
"X  c #0A0905",
"o  c #0E0B0A",
"O  c #140100",
"+  c #1C0200",
"@  c #190A01",
"#  c #130D0D",
"$  c #0F1208",
"%  c #15110E",
"&  c #1A1309",
"*  c #190F11",
"=  c #151212",
"-  c #1C1515",
";  c #1A1914",
":  c #1E1919",
">  c #260700",
",  c #370800",
"<  c #2A150A",
"1  c #321809",
"2  c #3C1C0C",
"3  c #281A15",
"4  c #221518",
"5  c #231C1C",
"6  c #351E12",
"7  c #1F231E",
"8  c #3F250C",
"9  c #24211E",
"0  c #2A221B",
"q  c #382318",
"w  c #271F21",
"e  c #262121",
"r  c #2A2424",
"t  c #2A2925",
"y  c #2E2929",
"u  c #362A26",
"i  c #332C2C",
"p  c #283128",
"a  c #39342D",
"s  c #372E31",
"d  c #353232",
"f  c #3B3535",
"g  c #383A33",
"h  c #491709",
"j  c #462716",
"k  c #4D2212",
"l  c #663618",
"z  c #7B341B",
"x  c #4A3328",
"c  c #4B362A",
"v  c #573627",
"b  c #473936",
"n  c #433E3D",
"m  c #663B26",
"M  c #793B26",
"N  c #733C29",
"B  c #6F3B32",
"V  c #4A433D",
"C  c #59443B",
"Z  c #794729",
"A  c #7C442D",
"S  c #6A4632",
"D  c #7A4735",
"F  c #734E34",
"G  c #4A4645",
"H  c #544D4C",
"J  c #5A534B",
"K  c #595654",
"L  c #775745",
"P  c #635B56",
"I  c #796251",
"U  c #696463",
"Y  c #736A6A",
"T  c #74716F",
"R  c #7A7573",
"E  c #853A26",
"W  c #923E2A",
"Q  c #83432C",
"!  c #8B482E",
"~  c #8C4737",
"^  c #844B33",
"/  c #8B4C32",
"(  c #984C37",
")  c #845235",
"_  c #855738",
"`  c #95563B",
"'  c #A24D3C",
"]  c #AA5B3B",
"[  c #AA603A",
"{  c #875847",
"}  c #945B43",
"|  c #995845",
" . c #8C5850",
".. c #A95645",
"X. c #A45C42",
"o. c #A95A45",
"O. c #88624D",
"+. c #97674A",
"@. c #886658",
"#. c #976858",
"$. c #9C7255",
"%. c #A46345",
"&. c #AA6748",
"*. c #AD654B",
"=. c #B5684B",
"-. c #AC714F",
";. c #BA714C",
":. c #A76956",
">. c #B26E51",
",. c #BB6B55",
"<. c #A87458",
"1. c #B77659",
"2. c #947065",
"3. c #9A7667",
"4. c #877D77",
"5. c #A97766",
"6. c #B67D65",
"7. c #B3786E",
"8. c #C26C57",
"9. c #C1785B",
"0. c #C97B6B",
"q. c #868279",
"w. c #9D8A7C",
"e. c #AA816C",
"r. c #BD8364",
"t. c #B3846C",
"y. c #BC876A",
"u. c #AA8878",
"i. c #B58778",
"p. c #C4835D",
"a. c #C48264",
"s. c #C68866",
"d. c #C4856C",
"f. c #C48B6C",
"g. c #CC8C6B",
"h. c #D18A6D",
"j. c #CE916D",
"k. c #D4936C",
"l. c #C78875",
"z. c #C39373",
"x. c #CD9374",
"c. c #CC9A7A",
"v. c #D59677",
"b. c #DC9C7C",
"n. c #D9A27C",
"m. c #E2A87D",
"M. c #848382",
"N. c #8C8883",
"B. c #918A86",
"V. c #9B958C",
"C. c #989595",
"Z. c #B38D83",
"A. c #BA9682",
"S. c #A29C97",
"D. c #B0A79B",
"F. c #ABAAA9",
"G. c #B7AEA8",
"H. c #BBB5AD",
"J. c #BBB7B6",
"K. c #C79A87",
"L. c #D09583",
"P. c #E39E81",
"I. c #CCA38A",
"U. c #D5A384",
"Y. c #DCA384",
"T. c #D4AB8C",
"R. c #DCA98B",
"E. c #C9A097",
"W. c #D3AC95",
"Q. c #DAB69A",
"!. c #E4A687",
"~. c #E3AB8A",
"^. c #E8B18D",
"/. c #EDAE94",
"(. c #E3B191",
"). c #EDB494",
"_. c #EBB89A",
"`. c #F4B698",
"'. c #F3BC9C",
"]. c #C7A9A4",
"[. c #DAB8A5",
"{. c #C5BCB4",
"}. c #CFBAB2",
"|. c #C3BEBA",
" X c #E7BCA5",
".X c #FCBDA2",
"XX c #F4C19B",
"oX c #FBC49D",
"OX c #C6C1BD",
"+X c #CCC4BD",
"@X c #DAC7BF",
"#X c #EAC2A7",
"$X c #F4C2A2",
"%X c #FAC5A4",
"&X c #F8C8A8",
"*X c #FCCBAD",
"=X c #E7C5B9",
"-X c #FBCDB2",
";X c #F5D3B6",
":X c #FED6B8",
">X c #BDC3C3",
",X c #CBC5C3",
"<X c #CAC9C7",
"1X c #D6CDC7",
"2X c #C8D3CC",
"3X c #D7D3CB",
"4X c #DBD4CB",
"5X c #DAD6D1",
"6X c #DEDAD5",
"7X c #DDDDDC",
"8X c #E5CBC4",
"9X c #EED1C8",
"0X c #F8D6C7",
"qX c #E8DAD4",
"wX c #E3DCDA",
"eX c #F5DBD2",
"rX c #E6E1DB",
"tX c #EAE4DB",
"yX c #FCE8DA",
"uX c #DFE6E5",
"iX c #E4E3E3",
"pX c #EAE4E3",
"aX c #E7E8E1",
"sX c #EDEAE4",
"dX c #ECECEB",
"fX c #F2EDE4",
"gX c #FDEBE6",
"hX c #F2EDEB",
"jX c #FCF3E6",
"kX c #F4F1EC",
"lX c #FCF4EC",
"zX c #FFFAED",
"xX c #EEF8F6",
"cX c #F4F4F4",
"vX c #FCF4F4",
"bX c #F5FAF4",
"nX c #FEFBF5",
"mX c #F4F5FA",
"MX c #F9F5FA",
"NX c #F5FBFC",
"BX c #FDFDFD",
/* pixels */
"BXBXBXBXBXBXBXBXBXBXBXBXBXBXBXBXBXBXBXBXBXBXBXBXBXBXBXBXBXBXBXBXNXNXBXbXxXnXnXnXBXbXbXBXdXBXBXNXNXBXBXBXBXBXBXBXBXBXBXBX",
"BXBXBXBXBXBXBXBXBXBXBXBXBXBXBXBXBXBXBXBXBXMXBXBXdXMXBXBXBXmXmXBXNXuXxXBXnXBXbX7X5XkXdXBXBXiXBXBXBXBXBXBXBXBXBXBXBXBXBXBX",
"BXBXBXBXBXBXBXBXBXBXBXBXBXBXBXBXBXBXBXBXnXMXnXBXBXBXMXMXBXBXmXBXBXBXBXsX3XS.J 0 .   9 q.2XMXmXMXBXBXBXBXBXBXBXBXBXBXBXBX",
"BXBXBXBXBXBXBXBXBXBXBXBXBXBXBXBXBXBXBXBXBXBXBXBXBXBXMXBXMXMXMXBXBXtX5XN.&   7 & b 3 d X   |.MXBXBXBXBXBXBXNXBXBXBXBXBXBX",
"BXBXBXBXBXBXBXBXBXBXBXBXBXBXBXMXBXnXBXBXBXBXBXBXBXhXBXBXBXBXBXhXnXq.& . u 0 3 c 3 . 0 a r . ,XBXBXBXBXBXBXBXBXBXBXBXBXBX",
"BXBXBXBXBXBXBXBXBXBXBXBXBXBXBXBXBXBXBXnXBXBXBXBXnXvXBXMX4X1XwX+XI 3 q b q < q 1 1 x q @ u . U hXBXBXBXBXBXBXBXBXBXBXBXBX",
"BXBXBXBXBXBXBXBXBXBXBXBXBXBXBXBXBXBXBXBXBXBXBXBXBXBXqXR * . O O @ 6 6 < 2 8 j 2 j j j q 6 6 . gXBXBXBXBXBXBXBXBXBXBXBXBX",
"BXBXBXBXBXBXBXBXBXBXBXBXBXBXBXBXBXnXBXBXBXBXBXBXBX6XH . u L J b c 2 2 j 2 j j j j > q j v x + {.BXBXBXBXBXBXBXBXBXBXBXBX",
"BXBXBXBXBXBXBXBXBXBXBXBXBXBXBXBXBXbXBXBXBXBXMXmXMX4.. b q H v L O.L { O.2.e.e.e.#.#.O.L 2 v q I vXBXbXBXBXmXbXBXBXBXBXBX",
"BXBXBXBXBXBXBXBXBXBXBXBXBXBXBXBXBXnXBXBXmXBXBXBX,Xo u 3 c 2 L @.A.K.W.Q. X$X#X XQ. XI.A.3.x j 1 wXBXcXMXBXBXBXBXBXBXBXBX",
"BXBXBXBXBXBXBXBXBXBXBXBXBXBXBXMXBXvXBXBXmXMXBXcXP . 6 < j j L e.I.Q.#X&X-X*X*X*X:X0X&X;XQ.O.k O ,XBXBXbXBXMXBXBXBXBXBXBX",
"BXBXBXBXBXBXBXBXBXBXBXBXBXBXBXBXBXnXBXBXBXBXmX>X  s . 3 6 S L i.U.R.(._._.'..X$X$X$X&X-XQ.W.S @ {.BXBXMXBXMXBXBXBXBXBXBX",
"BXBXBXBXBXBXBXBXBXBXBXBXBXBXBXBXnXBXnXBXBXBXiXK   u @ + j S O.y.U.n.T.R.^.XXoXoXXX&X&X$XQ.;Xq.@ G.BXBXBXBXBXBXBXBXBXBXBX",
"BXBXBXBXBXBXNXBXBXBXBXBXBXBXBXBXbXBXnXMXmXBX<XX y . < > 1 S _ y.f.z.n.~.^.XXoXoXXX:X&XXX:XT.z.& G.MXBXbXBXMXBXBXBXBXBXBX",
"BXBXBXBXBXBXBXBXBXBXBXBXBXBXBXBXnXBXcXBXNXBXJ.  d . @ < > S F y.y.x.m.^.^.XXoXoXXX:X&XXX:Xn.#X8 +XbXBXcXBXBXBXBXBXBXBXBX",
"BXBXBXBXBXBXBXBXBXBXBXBXBXBXBXBXnXBXbXBXNXNX>X  : 5 @ O 2 k O.y.1.s.n.n.n.n.^.XXoXXXoX;X#X;Xm.F 4XBXBXMXBXBXBXBXBXBXBXBX",
"BXBXBXBXBXBXBXBXBXBXBXBXBXBXBXBXBXvXMXBXxXxX>X  p $ & @ > 2 _ 7.<.P.~.c.U.U.U.(._.'._.*X&XXXQ.L tXcXBXBXBXMXBXBXBXBXBXBX",
"BXBXBXBXBXBXBXBXBXBXBXBXBXBXBXBXvXvXBXBXBXNX2X  p   . q 1 k  .i.L.x.6.<.<.+.$.y.U.'.Y.x.y.c.z.I tXMXBXBXBXBXBXBXBXBXBXBX",
"BXBXBXBXBXBXBXBXBXBXBXBXBXBXBXBXBXMXBXBXBXBX2XX p & & < O m 6.6.>.| } } _ Z l l +./.x.~ z _ $.q.lXBXBXBXBXBXBXBXBXBXBXBX",
"BXBXBXBXBXBXBXBXBXBXBXBXBXBXBXBXBXBXBXMXMXBXdXP X & 1 > k 7.U.6.1.+.` _ F +.+.l ` *X.X+.Z Z $.Q.nXBXBXMXBXBXBXMXBXBXBXBX",
"BXBXBXNXBXBXBXBXBXBXBXBXBXBXBXBXBXBXNXMXBXBXBXG.+ 1 + > D 5.d.f.X./ ^ ^ Z e.<.Z } `..Xd.+.) +.Q.nXBXBXBXBXBXBXMXBXBXBXBX",
"BXBXBXBXBXBXBXBXBXBXBXBXBXBXBXBXNXBXBXBXBXvXBXG.@.3.v > ) r.v.!.h.>.1.z.z.c.c.<.6.!..X/./.c.i.#XnXBXBXMXBXBXBXBXBXBXBXBX",
"BXBXBXBXBXBXBXBXBXBXBXBXBXBXBXBXNXNXBXBXBXvXgX2.v 3.B , Z p.p.a.`.v.x.x.z.n.R.c.6.6./.`.)._.R. XlXBXBXBXBXBXBXBXBXBXBXBX",
"BXBXBXBXBXBXBXBXBXBXBXBXBXBXBXBXxXNXBXcXMXBXgX .#.7.` Q Q &.=.k.P./.oX_.(.oX_.s.v.d.`.*X).%X XQ.jXMXBXBXBXBXBXBXBXBXBXBX",
"BXBXBXBXBXBXBXBXBXBXBXBXBXBXBXNXNXxXBXBXvXMXgX].@. .#.,.*.=.[ ;.9.0.g.!.XX&XU.<.Y.1.h./.'.*XXXW.lXbXBXBXBXBXBXBXBXBXBXBX",
"BXBXBXBXBXBXBXBXBXBXBXBXBXBXBXBXBXNXBXBXvXBXvX=X .h 5.0.X.( ;.;.=.1.a.x.~.R.r.` ! z ` >.f.(.XX#XjXBXBXBXBXBXBXBXBXBXBXBX",
"BXBXBXBXBXBXBXBXBXBXBXBXBXBXBXBXNXNXBXBXvXMXnXyX3.7.#.l.>.] ] [ o.=.1.a.v.n.f.%.z E ,.h.!.'.(.W.lXBXBXBXBXBXBXBXBXBXBXBX",
"BXBXBXBXBXBXBXBXBXBXBXBXBXBXBXBXBXNXBXMXBXvXnXnX9X .i.E *.[ 8.] *.*.>.p.c.~.~.b.j.j.P.b.b.).R.W.lXMXBXBXBXBXBXBXBXBXBXBX",
"BXBXBXBXBXBXBXBXBXBXBXBXBXBXBXBXBXNXNXBXBXnXBXnXlX[.D } ` X.=.8.,.;.1.p.c.Y.Y.m.b.b.b.b.m./.~._.nXBXBXBXBXBXBXBXBXBXBXBX",
"BXBXBXBXBXBXBXBXBXBXBXBXBXBXBXBXBXBXBXBXBXBXnXzXzXzX0XN | ,.( 8.,.9.0.g.s.s.1.>.%.&.9.9.b.~.Y.#XnXBXBXBXBXBXBXBXBXBXBXBX",
"BXBXBXBXBXBXBXBXBXBXBXBXBXBXBXBXMXBXBXNXBXNXbXnXtXzXyXL.h o.0.' =.,.p.g.s.r.-.&.=.o.o.] >.a.c.:XnXBXBXBXBXBXBXBXBXBXBXBX",
"BXBXBXBXBXBXBXBXBXBXBXBXBXBXBXMXBXBXBXmXNXBXBXBXnXzXlX XE ( ] 8.o.;.9.j.j.s.s.g.k.k.v.b.b.v.c.:XnXBXBXBXBXBXBXBXBXBXBXBX",
"BXBXNXBXMXBXBXBXBXBXBXBXBXBXBXMXnXnXBXMXBXBXBXNXBXBXjX9X~ ~ ......:.>.,.p.k.n.m.m.m.m.n.^.Y.U.yXnXBXBXMXBXBXBXBXBXBXBXBX",
"BXBXBXBXNXBXBXBXBXBXBXBXBXBXBXBXnXnXnXBXBXBXBXNXNXBXnXyX . .~ ' ..o.&.1.p.k.m.m.m.m.^.^.(.I.T.yXnXBXBXBXBXBXBXBXBXBXBXBX",
"BXBXBXBXBXBXBXBXBXBXBXBXBXBXBXBXnXnXnXBXMXBXBXNXBXcXnXzX2.~ E W / ~ ` %.>.1.s.v.n.k.R.T.I.I.#XzXnXBXBXBXBXBXBXBXBXBXBXBX",
"BXBXBXBXBXBXBXBXBXBXBXBXBXBXBXBXnXnXBXnXBXBXBXNXBXbXfXnX7.B ' E M M ^ ` | %.&.*.1.-.t.e.e.[.eXzXnXBXBXBXBXBXBXBXBXBXBXBX",
"BXBXBXBXBXBXBXBXBXBXBXBXBXBXBXBXnXnXnXBXBXBXBXNXBXBXnXjX5.D ..B Q N M / ` ~ W ~ | | :.@.w.yXzXnXBXBXBXBXBXBXBXBXBXBXBXBX",
"BXBXBXBXBXBXBXBXBXBXBXBXBXBXBXBXBXnXBXBXBXBXNXBXmXBXnX8X@.{ ' ~ D N N M E E E E ~  .5.2.].nXBXkXBXBXBXBXBXBXBXBXBXBXBXBX",
"BXBXBXBXBXBXBXBXBXBXBXBXBXBXBXBXnXbXBXBXBXBXBXBXBXbX+X}.i.B | ~ D N N M M z E ....7.7.Z.=XnXnXmXBXBXBXBXBXBXBXBXBXBXBXBX",
"BXBXBXBXBXBXBXBXBXBXBXBXBXBXBXBXBXnXBXBXMXBXMXBXBXbXP @X}.k :.B ^ D Q Q E E ' 8.,.0.L.Z.8XvXkXBXBXBXBXBXBXBXBXBXBXBXBXBX",
"BXBXBXBXBXBXBXBXBXBXBXBXBXBXBXBXxXnXBXBXMXBXBXMXBXM.i }.eXE.k { #.A ^ ` W W 8.0.0.0.L.7.8XvXhXBXmXBXBXbXBXBXBXMXMXBXBXcX",
"BXBXBXBXBXBXBXBXdXBXBXBXMXBXBXMXBXbXdXnXBXBXMXmXM.X   8X}.0XE.L N +.` Q ..8.8.h.0.L.| 0XeX4.nXBXBXBXBXmXMXBXBXBXBXBXBXBX",
"BXBXBXBXBXBXBXBXBXBXmXMXBXBXBXBXbXBXMXBXnXpXC.G   e   B.8X9X[. X6.D ^ | ! *.g.*.0.0.K.gX=Xq q.{.uXBXNXNXBXBXcXcXBXmXcXiX",
"BXBXBXBXBXBXBXBXbXBXBXBXMXdXdXBXBXmXpX|.Y * . . t 7   G {.8X9X9X#Xi.D N ` :.1.y.5.:.eXlXnX4..   n T J.uXBXBXBXBXBXBXBXBX",
"BXBXBXBXBXBXBXBXmXMXmXxXBXBXBXMX7XF.H   . r n w y   ; ; V.4XtX=XyX0XK.{ F O.$.e.5.;XzXyXqXP . f = o o d M.>XdXNXBXmXkXBX",
"BXBXBXBXBXBXBXBXBXBXdXBXBXiXF.C.    * s b 4 * -   p g   q.4X@XyXlXeXgX9Xe.@.u.u.;XzXyXjXnXB.  i = y d =   o K F.7XBXBXBX",
"BXBXBXBXBXBXBXBXMXBXNXiXC.d   X s f s 4 4 u y - p 7 =   g 3XgXqXqXgXvXnXeXw.2.D.fXzXnXjXdXF.  d 7 : : r d t X   = M.7XBX",
"BXBXBXBXBXBXBXBXBXcXC.;   e n t w 4 w 4 4 4 w t : = $ g   C.sXpXgXpXgXyXS.C u X V.kXzXBXkX7Xg = 7 7 = = 7 7 7 d :   - M.",
"BXmXBXBXBXBXcXBXJ.G   e G r 4 y 5 w r 5 5 4 * - 5 = 5 y   R pXrXvXqXzXV.$ 0 0 a   H.BXnXfXnXq.  i ; 5 : e = s ; y e - # ",
"nXBXBXrXBXBXwXN.  5 f i 5 w r w w w e r 5 5 4 4 e - : : X n 5XpXqXnXOX; 3 0 ; g * d wXnXnXnXV.. 9 y 0 5 e - e : t e t r ",
"BXBXBXBXBXS.H   i i r 4 5 i i w w e e 5 9 5 e e 5 - 5 - 5 # H.kXsXtXS.V J % 0 % P G H.hXnXzX{.p ; i # r n y = 5 - - : 5 ",
"kXBXBXBXU # o f s 5 - y u 4 4 y w e r 5 5 5 e t : - e 5 i   T pXkX+X+X+XN.0 t   R 5XOXsXfXnX3XP . t = U C.P o - 5 5 e 5 ",
"BXcXmXC.o y y y % w y r 5 3 5 5 e e e 5 5 5 5 e r % r 5 w o r 1X6XfXfX,XS.K % = i dXkXzXlXnXrXR   y # n T H = r r e e e ",
"BXkXBXK   - t o f s 5 * 4 r w - 5 e e 5 4 : : 5 y % 5 - - r . J.fXnXtX{.H.U   i # T BXBXlXnXtXV.  s %   * 4 : r : : : - ",
"BXsX<XX ; = : e O % 5 r 5 * 4 0 5 e e e 5 5 : 5 5 : : - 5 s   V.nXrXfX3X{.H   y 5 - ,XBXkXzXfXG.  y d t r 5 r = t w 5 5 ",
"cXBXF.  y -   ; 5 r w 5 4 w 5 4 5 5 e e 5 5 5 5 : y e : w 5 . K tXtXnX|.J.G = 5 9 o Y BXnXnXfXH.i - - 5 r # i - 4 5 : : ",
"BXBXT . t # : X - - : - - 4 4 5 4 5 5 5 5 4 : ; t 4 e 5 - 9 w   OXnX5X<X<XH . w : s   7XBXnXlX|.P   f - 5 y e 5 5 5 : : ",
"BXbXH   : % = = - - : 4 4 4 5 5 5 9 e e 9 5 5 : e 5 e 5 - e e X B.lXrX3X,XG . w : s   J.nXnXkX,XT   d - 5 e : : w 5 5 5 ",
"MX7X7   % X   = * * = = * * - 4 - - : 4 : : : - - - 5 : # - : # V 6XtX6X,XG X y w i . M.hXBXkX6XB.  i 5 w w : w : - - - ",
"BXaXd X y 5 : y 0 r r r w r r y y y y i i i i i e y d y e r i r . |.aX7X,XK - i y s - K hXMXvX7XS.. i y s y r i i i i y "
};
