/* XPM */
static char *result[] = {
/* columns rows colors chars-per-pixel */
"60 60 63 1 ",
"  c #040100",
". c #0C0101",
"X c #140101",
"o c #1C0102",
"O c #230202",
"+ c #2C0303",
"@ c #270409",
"# c #330304",
"$ c #3B0405",
"% c #3C0508",
"& c #430506",
"* c #4A0606",
"= c #450807",
"- c #4C0807",
"; c #440609",
": c #4B0609",
"> c #44090A",
", c #4D090A",
"< c #520707",
"1 c #5A0707",
"2 c #530807",
"3 c #5D0907",
"4 c #540609",
"5 c #5A070B",
"6 c #54090B",
"7 c #5B090C",
"8 c #5C0B10",
"9 c #63070D",
"0 c #630B0D",
"q c #6B0C0E",
"w c #720E0F",
"e c #650C11",
"r c #6C0D11",
"t c #730E12",
"y c #7A0E13",
"u c #7D0F18",
"i c #6C1011",
"p c #741013",
"a c #7C1114",
"s c #830F16",
"d c #890F14",
"f c #8B0F19",
"g c #831216",
"h c #8A1316",
"j c #841318",
"k c #8C1419",
"l c #911417",
"z c #991514",
"x c #93151A",
"c c #9A161B",
"v c #95191C",
"b c #9C191C",
"n c #A2171E",
"m c #A3191D",
"M c #AB1B1F",
"N c #B21B1F",
"B c #9E1A20",
"V c #A51720",
"C c #A51B21",
"Z c #AA1B21",
"A c #B31C22",
"S c #B72025",
"D c #B92026",
/* pixels */
"o.oO+#&2qbDk+@$gMZCZt+ 7mu>#OO#$<aANh0& gNMyXax5o.X.+hh&ooOo",
"o.XO+#;60kAx+O#pMZmZu+ 6mp%#@O#$<ybmh0$ pMZyopx6XXX.+lh*oXoO",
"o.XOO$>&0kSv+O#rmmbmi@ 7xt%#++$&*rnMhq& rMcyoqv8XXX Ogl-oooo",
"O .o+#$*8kMv$@#ebmvZu+ 6by:#O+#&*txVge> rnxtOqbeo...Oah*+oOO",
"O.XOO#&*7gMb=O+izmbCp+ 2xt*#OO+$-qbZje>X7Vng#9veOX..Xph-+ooo",
"o..oO#&=7pZb#O+3vNmZi# -lt;$+O#&&qxMfe;o4nnh#9lrO...Xwh<+ooo",
"O..oO+$=3pCv%O@-vmmCi+ 2xr;##++$*9xZse:o2zlk$4lro.X.Xqh<OXoo",
"O..oO+#&2ibB>XO,vbbmiO 2lr*#OO+$*5xCae:O&xxh;-heo... qh<oXoO",
"+o oo+$;4qxC,Xo>gBvbt+ *ly*##O+$-1gxgr,O;xxg&*hqO..X 7g<OXoo",
"O. Xo+#$<9bB6oO%aVbBpO =hy&$#O+$-9acse4#%fcx&$hi@... 7g5OOoo",
"oX Xo+##*qxB8o+#abbcp. ;gy*#+O+#*5axye6##dmh,$ht+X.. 7g5Oooo",
"OX.Xo+##*qjcio++yCBviO &aq:#+OO$&4aca6:%#flh6$yt+ X. 6a5Oooo",
"Oo.Xo+##&9kmpXO@qvzvp+ $yt:#+o+#;4ycte:$Oslke+sy+ XX :a7+ooX",
"oX XoO+$*9gCaoOOebzxp+ #yr,#oX+#:qtvp5<#.sck7Oya# .X *a7OOoX",
"oX.XoO#$&<ynpOoOevcBt# +wq:$+oO#;5rju86#owlle+aj% .X =s7OooX",
"Oo..oO##&<pnaOoO8jkjy#.+yq;#+o+#;:eft76$otlxeOpj; .. $a9+ooo",
"oo..oO+#$*pva@oo6glkp@ +aq:#+O+#&49jye4%oqhkeork; .X #tq#ooo",
"OX..XO++$*igj%oo:kxkp# #gr;$OOO+&*qsy9,$.qxfeXrj# X. +t9@oXo",
"oX. X+##&*ijj$OO$ablp#X+ai$#OOOO$<0aa5<&.9fdrO8p% .. +te+oXX",
"+o..Xo+#$&ikj,Xo$abla#X@q7>$+O++$-0ha7:&.7hsp@6p> ...OreOO.X",
"+o. .O++#$7lk-Xo+whka#XOee:%OOO+$-0yy7:$X,hhy#2j: .. O07#oXX",
"oo..XoO#$&exv,ooOikji#Xoer4#+OOO$<2yje;%X-hfy#:a>..X O7e#OXo",
"Oo. .o++#&5fk,XOOqjar%Xoqq5$OXoo#47ua9::o*gdy+2p>X.X o79#oXX",
"Oo...o@O+$5ag,XoO7jkp%XX7q4#OOO+#67tj0<&o$ydy#:p> X..X5q#OXX",
"Ooo .oo++$<ak7OoX2gji#O.7e:#+OO+#49qsq1*++yfg&$p, X.. 8r#Ooo",
"Ooo..XoO+#*txrOXo&pgi%o.574#OOo++<7qa94=##tsy:#i8o. . 8e#OXo",
"OXX..oO+++&tke@oo%rgi%o.506%OOOO+-5qg02&##ryt:#r8X....;7#OXo",
"OoX. XO++#;rke@oX$ra8#O -q4%+oooO-5qgq=&++ryy7+i8.... -e&OoX",
"ooo. XO++#;rjr+X.+ppe;o :e4$#o+O+$3qgq,$#Oqys7O76o .X :r&O..",
"OOoX. o+#+$ekp#oX#7p0%o ;95%#oOoO&30ar&&#o7wy7o0eO. . $q&o.X",
"OOo. .XO++$7jt#Xoo2i8;o.;7,$#oOOO=69ar*%$X7yp7oeeO... $q=ooX",
"Ooo.  XO+O$4at$XXo,ee,o ;7:$#ooO+$69yq&&$.1ypqo0q+X.  #7=o.X",
"oOX. .XOOO$6tp:XoX$i7=o $6,;#ooO@#4eie,$$X2wwqo79#... +0,O X",
"oOo.  XOOO#<tp*oX.%07,O $7-$+oXoO+45ri&#$o*wq9+7q#X.  +3,+XX",
"OOo. .XoOO#&rp-oX.#77,+ #6:$+oooO#:8re:#%o$iq0o7t%o . o52OX.",
"OooX. XoO@#&ya,OXX+27&@ #14$@OOoO+&6qq;%%O#qtqO2t;.   o2,OX.",
"ooX.. .oOX+*rp,OXX@,6&@ #65&#XoOo+&2pq>$#+#wt9@=q%.. ..22OXX",
"oOoX..oXOOO*ra7+XoO=7=+ +22&#OOoo+=6ww=&$O#wq7#&r$X  ..,6OXX",
"OOoX  Xooo+&qp7+.oX$-=+.o26-#oooo+#1qr,##+Oiqq$&r;X .. =7O..",
"ooXoX .Xoo+&6w0+.XX+*>+.o-6,+oXOOO#<9e*#$+ 9r3;+q6o .. &7@.X",
"ooXX....Xo+=2i0#o.X@=>@Xo=*$+ooooO#<qq:#$+.5q7;+92o    $2#..",
"OoXX....XO+$6i9$X.X@&%+XX=-&+oOooO#&7r:$#+ 6q7-+02o .. #2#..",
"OoXoX .XoO+#6rr;XXXo$$+XX=2>#ooOoO#&9q6$##.;974+07+  . +6#..",
"ooooX  XoOO#,rq>O.oX#&+X.=*>%ooooO+&6q2### %07<O77O  . @2#. ",
"ooooX ..XoO#-rq>O.oo+;+X.$,>$OooXOO#*76##+ &05,O56+ .  O,$X.",
"+ooX.  .XO+#*0r6@XooO>#XX#*=$OoooOO%*q6### >912O<6O .  O,$X.",
"OooXX.  XoO#*0q,@oXXO&+XX+=&#OoOoOO%<e8###.#355O*6+  . X,&..",
"+ooXX.. XoO#=9r8+oXXO$+X.#&&#OooooO#:76;+#X+37,O$5#. . .:;..",
"+oXoX...XOO#;5r7+X..o#+o.+&$#OooooO@;97$+$oo766O#7$X .. :&X.",
"#OoXX. .XoO+;4r7#oX.o#OoXO&&$OoooOo#;64$#$OX,56#O6%.    **X.",
"+OooX.. XooO$4q7+oX.X+Oo.O&&#OoOOoO+$25&##oX<56%X7,X.   ;;o.",
"++oXX...XooO$<77>oX.XO+OXo&&#oOooXo+%65%##@.:44&X,,X   .#=o.",
"+OoXX.. XXX++*07,+XXXOOoXX$%#ooOOOo@%:7%+%O.;6<; =2o  . #&O.",
"#OoXX.  .XXO#,77,+X.Xo+oXX$&#OXooooO+,6;+$O &<5;.%,o  . +*+ ",
"#+oooX.. XXo+,56,+XXXoOXXX$*#OoXoXXO#,6>O#+.#4<&X#*O  . +&+.",
"#OOXXX. ..o@#=5e-+XX.XooX.#&#OOooXXO#*2&O#+ +<4*o#*O    O,+X",
"#OOX.X.  XXO#*47,+o.XoooX @;#OooooXO#&:&+#+ O*--++-+    o=# ",
"#+oo.X.  .Xo+&<6;#oX.Xoo..+$#OoXOoXo+$:&+++.o**&oo=# .. .=$ ",
"#+OoXX.   .o+#<8>#@X..oOX.O%#OOoooXo+#>:+++o.&*&Oo=$.   .&#.",
"#+OX... ...oO$:<,$oX..ooX.o#+OooooXo+#&=+O#O $*=+X*=X    $#X"
};
